<svg width="53" height="53" viewBox="0 0 53 53" fill="none" xmlns="http://www.w3.org/2000/svg">
<path fill-rule="evenodd" clip-rule="evenodd" d="M26.5 53C41.1355 53 53 41.1355 53 26.5C53 11.8645 41.1355 0 26.5 0C11.8645 0 0 11.8645 0 26.5C0 34.5527 3.59176 41.7664 9.26063 46.6266C10.1375 45.3352 11.2204 44.0143 12.5093 42.664C13.8533 41.256 15.2773 39.928 16.7813 38.68C18.2853 37.4 19.7893 36.232 21.2933 35.176C22.8293 34.12 24.2213 33.256 25.4693 32.584C25.5013 32.552 25.5173 32.424 25.5173 32.2C25.5493 31.976 25.5333 31.736 25.4693 31.48C25.4373 31.224 25.3573 30.968 25.2293 30.712C25.1013 30.456 24.9093 30.28 24.6533 30.184C24.1413 29.992 23.5173 30.04 22.7813 30.328C22.0453 30.616 21.2613 31.048 20.4293 31.624C19.6293 32.2 18.8133 32.872 17.9813 33.64C17.1813 34.408 16.4133 35.16 15.6773 35.896C14.9733 36.632 14.3493 37.32 13.8053 37.96C13.2613 38.6 12.8773 39.08 12.6533 39.4C12.2373 39.944 11.8213 40.216 11.4053 40.216C11.0213 40.216 10.6533 40.136 10.3013 39.976C9.85333 39.752 9.50133 39.448 9.24533 39.064C8.98933 38.648 8.95733 38.168 9.14933 37.624C9.50133 36.504 9.98133 35.112 10.5893 33.448C11.2293 31.752 11.9013 30.04 12.6053 28.312C13.3093 26.552 14.0133 24.856 14.7173 23.224C15.4213 21.592 16.0133 20.264 16.4933 19.24C14.7973 20.584 13.3253 21.976 12.0773 23.416C10.8293 24.856 9.91733 26.152 9.34133 27.304C8.76533 28.456 8.57333 29.368 8.76533 30.04C8.95733 30.712 9.62933 30.968 10.7813 30.808C10.6533 31.48 10.2373 31.896 9.53333 32.056C8.82933 32.216 8.07733 32.152 7.27733 31.864C6.50933 31.576 5.82133 31.08 5.21333 30.376C4.60533 29.64 4.33333 28.712 4.39733 27.592C4.46133 26.632 4.82933 25.56 5.50133 24.376C6.20533 23.192 7.10133 21.992 8.18933 20.776C9.27733 19.56 10.5093 18.392 11.8853 17.272C13.2933 16.12 14.7333 15.112 16.2053 14.248C17.6773 13.352 19.1493 12.664 20.6213 12.184C22.0933 11.704 23.4533 11.496 24.7013 11.56C25.6933 11.624 26.6533 11.928 27.5813 12.472C28.5093 12.984 29.2933 13.64 29.9333 14.44C30.6053 15.208 31.0693 16.056 31.3253 16.984C31.6133 17.912 31.5973 18.792 31.2773 19.624C30.9573 20.456 30.5253 21.256 29.9813 22.024C29.4373 22.76 28.8613 23.448 28.2533 24.088C27.6773 24.728 27.1013 25.304 26.5253 25.816C25.9493 26.328 25.4693 26.744 25.0853 27.064C26.0133 27.16 26.9253 27.544 27.8213 28.216C28.7493 28.856 29.4693 29.608 29.9813 30.472C31.1653 30.056 32.2373 29.672 33.1973 29.32C34.1893 28.968 35.2453 28.744 36.3653 28.648C36.5573 28.616 36.6853 28.744 36.7493 29.032C36.8453 29.288 36.8773 29.608 36.8453 29.992C36.8453 30.344 36.7653 30.68 36.6053 31C36.4453 31.32 36.2053 31.512 35.8853 31.576C34.8613 31.8 33.8533 32.088 32.8613 32.44C31.8693 32.792 31.0693 33.128 30.4613 33.448C30.2693 34.984 29.7413 36.6 28.8773 38.296C28.0453 39.992 26.9893 41.672 25.7093 43.336C24.4613 45 23.0373 46.584 21.4373 48.088C20.1061 49.3127 18.7306 50.4045 17.3108 51.3634C20.1736 52.4219 23.2693 53 26.5 53ZM12.9161 49.2584C13.1355 49.1102 13.3679 48.9441 13.6133 48.76C14.3813 48.152 15.1973 47.448 16.0613 46.648C16.9253 45.848 17.8053 45 18.7013 44.104C19.5973 43.176 20.4133 42.264 21.1493 41.368C21.9173 40.472 22.5573 39.64 23.0693 38.872C23.6133 38.104 23.9653 37.48 24.1253 37C23.1653 37.608 22.0133 38.44 20.6693 39.496C19.3573 40.552 18.0773 41.688 16.8293 42.904C15.5813 44.12 14.4773 45.352 13.5173 46.6C12.922 47.3739 12.462 48.0986 12.1374 48.7741C12.394 48.9399 12.6536 49.1013 12.9161 49.2584ZM18.1733 28.792C17.3093 29.624 16.6853 30.248 16.3013 30.664C16.6213 29.928 16.9733 29.096 17.3573 28.168C17.7733 27.24 18.1893 26.296 18.6053 25.336C19.0213 24.344 19.4373 23.384 19.8533 22.456C20.3013 21.496 20.7333 20.616 21.1493 19.816C21.2773 19.56 21.2933 19.304 21.1973 19.048C21.1013 18.792 20.9413 18.568 20.7173 18.376C20.4933 18.152 20.2373 17.976 19.9493 17.848C19.6613 17.72 19.4213 17.64 19.2293 17.608C19.9013 17.128 20.6213 16.696 21.3893 16.312C22.1893 15.928 22.9573 15.624 23.6933 15.4C24.4293 15.144 25.1013 14.984 25.7093 14.92C26.3173 14.824 26.7653 14.872 27.0533 15.064C27.6933 15.448 27.9173 16.04 27.7253 16.84C27.5653 17.64 27.1493 18.552 26.4773 19.576C25.8053 20.568 24.9733 21.64 23.9813 22.792C22.9893 23.912 21.9813 24.984 20.9573 26.008C19.9653 27.032 19.0373 27.96 18.1733 28.792Z" fill="white"/>
</svg>
